<svg xmlns="http://www.w3.org/2000/svg" height="20px" viewBox="0 -960 960 960" width="20px" fill="#000000"><path d="M744-144 480-407l-87 88q8 16 11.5 33t3.5 34q0 65-45 110.5T252-96q-64 0-110-45.5T96-252q0-65 45.5-110.5T252-408q17 0 34 4t33 12l88-87-88-88q-16 8-33 11.5t-34 3.5q-65 0-110.5-45.5T96-708q0-65 45.5-110.5T252-864q65 0 110.5 45.5T408-708q0 17-3.5 34T393-641l471 469v28H744ZM595-520l-74-74 223-222h120v28L595-520ZM311.5-648.5Q336-673 336-708t-24.5-59.5Q287-792 252-792t-59.5 24.5Q168-743 168-708t24.5 59.5Q217-624 252-624t59.5-24.5ZM497-463q7-7 7-17t-7-17q-7-7-17-7t-17 7q-7 7-7 17t7 17q7 7 17 7t17-7ZM311.5-192.5Q336-217 336-252t-24.5-59.5Q287-336 252-336t-59.5 24.5Q168-287 168-252t24.5 59.5Q217-168 252-168t59.5-24.5Z"/></svg>